<?xml version="1.0" standalone="no"?>
<!DOCTYPE svg PUBLIC "-//W3C//DTD SVG 20010904//EN"
 "http://www.w3.org/TR/2001/REC-SVG-20010904/DTD/svg10.dtd">
<svg version="1.0" xmlns="http://www.w3.org/2000/svg"
 width="200.000000pt" height="200.000000pt" viewBox="0 0 200.000000 200.000000"
 preserveAspectRatio="xMidYMid meet">
<metadata>
Created by potrace 1.14, written by Peter Selinger 2001-2017
</metadata>
<g transform="translate(0.000000,200.000000) scale(0.100000,-0.100000)"
fill="#000000" stroke="none">
<path d="M945 1695 c-89 -16 -155 -36 -155 -47 0 -5 -4 -7 -8 -4 -12 7 -129
-104 -163 -155 -31 -47 -38 -86 -15 -95 7 -3 41 11 75 31 108 64 258 118 366
133 59 8 223 8 275 0 60 -10 129 -32 176 -57 53 -27 36 -26 -36 3 -107 44
-285 56 -445 30 -115 -18 -311 -103 -372 -160 l-35 -33 19 -33 c10 -18 32 -40
49 -50 30 -18 118 -42 188 -53 21 -3 42 -7 46 -10 4 -3 25 -7 46 -10 58 -7
295 -72 424 -115 161 -55 254 -96 258 -114 5 -23 7 -23 -103 25 -99 43 -460
151 -588 175 -18 3 -36 7 -42 8 -5 1 -37 8 -70 14 -79 16 -133 32 -170 50 -30
15 -85 70 -85 85 0 13 -54 -23 -74 -50 -16 -22 -17 -29 -6 -69 33 -117 193
-319 371 -469 87 -74 307 -197 372 -209 12 -2 41 -9 65 -15 24 -7 79 -13 123
-14 53 -1 74 -4 63 -10 -18 -10 -140 -12 -194 -3 -150 25 -412 180 -569 336
-116 115 -219 263 -251 363 -10 32 -14 36 -27 26 -31 -26 -45 -71 -39 -120 11
-84 83 -354 108 -405 48 -98 64 -120 143 -196 33 -32 56 -58 52 -58 -21 0
-165 159 -189 210 -33 70 -57 127 -63 154 -16 65 -50 198 -62 244 -15 52 -27
58 -36 17 -2 -11 -3 -6 0 10 10 83 15 139 10 135 -3 -3 -8 -21 -11 -40 -3 -19
-9 -56 -14 -83 -6 -27 -6 -50 -1 -53 5 -3 8 -33 8 -67 -2 -105 26 -194 110
-345 7 -13 48 -59 91 -101 393 -390 1067 -191 1184 349 19 87 16 254 -7 335
-28 101 -117 263 -137 250 -5 -3 -12 0 -16 6 -4 8 -3 9 4 5 30 -18 6 14 -45
63 -165 154 -386 223 -598 186z m-190 -1285 c3 -6 -1 -7 -9 -4 -18 7 -21 14
-7 14 6 0 13 -4 16 -10z"/>
<path d="M670 1592 c-30 -19 -87 -68 -126 -108 l-71 -73 1 -65 c1 -36 3 -67 6
-69 4 -1 25 14 48 34 38 33 42 40 42 84 0 31 8 60 22 84 22 37 104 121 118
121 4 0 10 7 14 15 3 8 4 15 3 14 -1 0 -27 -17 -57 -37z"/>
<path d="M418 1303 c-18 -41 -30 -82 -29 -103 2 -37 11 -53 18 -32 3 7 15 25
27 40 18 21 23 41 25 95 1 37 0 67 -4 67 -3 0 -20 -30 -37 -67z"/>
</g>
</svg>
